<svg width="32" height="17" viewBox="0 0 32 17" fill="none" xmlns="http://www.w3.org/2000/svg">
<path d="M9.72728 1H5.90909C5.6921 1 5.48399 1.09482 5.33055 1.2636C5.17711 1.43239 5.09091 1.66131 5.09091 1.9V15.1C5.09091 15.2182 5.11207 15.3352 5.15319 15.4444C5.19431 15.5536 5.25458 15.6528 5.33055 15.7364C5.40653 15.82 5.49672 15.8863 5.59599 15.9315C5.69526 15.9767 5.80165 16 5.90909 16H9.72728C9.83472 16 9.94111 15.9767 10.0404 15.9315C10.1396 15.8863 10.2298 15.82 10.3058 15.7364C10.3818 15.6528 10.4421 15.5536 10.4832 15.4444C10.5243 15.3352 10.5455 15.2182 10.5455 15.1V1.9C10.5455 1.66131 10.4593 1.43239 10.3058 1.2636C10.1524 1.09482 9.94427 1 9.72728 1ZM26.0909 1H22.2727C22.0557 1 21.8476 1.09482 21.6942 1.2636C21.5407 1.43239 21.4545 1.66131 21.4545 1.9V15.1C21.4545 15.2182 21.4757 15.3352 21.5168 15.4444C21.5579 15.5536 21.6182 15.6528 21.6942 15.7364C21.7702 15.82 21.8604 15.8863 21.9596 15.9315C22.0589 15.9767 22.1653 16 22.2727 16H26.0909C26.1984 16 26.3048 15.9767 26.404 15.9315C26.5033 15.8863 26.5935 15.82 26.6695 15.7364C26.7454 15.6528 26.8057 15.5536 26.8468 15.4444C26.8879 15.3352 26.9091 15.2182 26.9091 15.1V1.9C26.9091 1.66131 26.8229 1.43239 26.6695 1.2636C26.516 1.09482 26.3079 1 26.0909 1Z" stroke="#9400D3" stroke-width="2" stroke-linecap="round" stroke-linejoin="round"/>
<path d="M10.5455 8.5H21.4545M1 12.1V4.9C1 4.66131 1.0862 4.43239 1.23964 4.2636C1.39308 4.09482 1.60119 4 1.81818 4H4.27273C4.48972 4 4.69783 4.09482 4.85127 4.2636C5.00471 4.43239 5.09091 4.66131 5.09091 4.9V12.1C5.09091 12.3387 5.00471 12.5676 4.85127 12.7364C4.69783 12.9052 4.48972 13 4.27273 13H1.81818C1.60119 13 1.39308 12.9052 1.23964 12.7364C1.0862 12.5676 1 12.3387 1 12.1ZM31 12.1V4.9C31 4.66131 30.9138 4.43239 30.7604 4.2636C30.6069 4.09482 30.3988 4 30.1818 4H27.7273C27.5103 4 27.3022 4.09482 27.1487 4.2636C26.9953 4.43239 26.9091 4.66131 26.9091 4.9V12.1C26.9091 12.3387 26.9953 12.5676 27.1487 12.7364C27.3022 12.9052 27.5103 13 27.7273 13H30.1818C30.3988 13 30.6069 12.9052 30.7604 12.7364C30.9138 12.5676 31 12.3387 31 12.1Z" stroke="#9400D3" stroke-width="2" stroke-linecap="round" stroke-linejoin="round"/>
</svg>
