<svg width="100" height="100" viewBox="0 0 100 100" fill="none" xmlns="http://www.w3.org/2000/svg">
<path d="M8.62036 75.5844C13.5797 79.5875 19.4625 81.5437 24.9 81.1047C34.925 80.4922 50.4782 73.4922 65.8 61.9234C83.4219 48.6219 95.3969 33.3093 96.6125 23.6922C97.5907 17.3734 95.8532 10.1062 91.2829 3.92029C87.2813 -1.49378 55.725 22.3297 59.725 27.7422C62.7954 31.8984 66.6907 34.9468 70.8157 36.7625C66.6391 40.9703 61.8079 45.2062 56.4454 49.2593C51.0532 53.3281 45.6391 56.8187 40.4422 59.6812C39.886 55.1703 38.1 50.5344 35.0329 46.3844C31.0297 40.9719 -0.524957 64.7969 3.47504 70.2094C4.35972 71.4016 5.33222 72.5261 6.38442 73.5734C2.57036 76.1859 3.01411 79.2406 3.45317 80.5625C4.92192 84.9594 11.5563 87.8969 17.1047 86.6078C21.1219 85.6703 25.3485 85.9406 28.4735 87.2297C27.5032 89.0187 27.011 90.7609 27.0094 91.7453C27.0094 94.5468 28.4485 95.7937 29.3063 96.2844C29.7907 96.5656 30.325 96.7453 30.8782 96.825C31.9794 96.9833 33.1017 96.7594 34.0579 96.1906C35.3219 95.4312 36.0594 94.1453 36.036 92.7531C35.9907 90.2547 34.8282 88.0343 32.6704 86.3312C32.6563 86.3234 32.6454 86.3109 32.6313 86.3015C33.3797 85.4922 34.2797 84.8047 35.3329 84.4297C36.4401 84.0244 37.6487 83.9882 38.7782 84.3265C37.5579 86.8094 37.061 89.6515 37.9344 91.9437C38.7079 93.9734 40.7719 95.0765 42.9563 94.6172C45.15 94.1594 46.6235 92.3156 46.536 90.1312C46.4375 87.5828 45.0563 85.0203 42.8844 83.2797C43.5657 82.489 44.3188 81.8703 45.0625 81.5547C46.55 80.9234 47.9485 80.9343 49.3313 81.5828C49.7625 81.7875 50.1704 82.0406 50.55 82.3281C50.1413 82.7832 49.781 83.2796 49.475 83.8093C48.3782 85.7125 48.1547 87.864 48.8469 89.8719C49.7907 92.6 52.0766 93.2265 53.7969 92.6469C55.9782 91.9187 57.6438 89.2578 56.6563 86.0718C56.3735 85.1625 55.7375 83.8687 54.7922 82.5953L54.5922 82.3781C55.5329 81.7015 56.8672 81.0344 58.5204 81.014C58.3297 83.039 58.561 84.8344 58.9454 85.7406C60.0438 88.3172 61.8547 88.8984 62.8375 89.0172C63.3933 89.0828 63.9565 89.042 64.4969 88.8969C65.5711 88.6088 66.5147 87.9627 67.1719 87.0656C68.036 85.8703 68.2125 84.4 67.6422 83.1265C66.6219 80.8484 64.6797 79.2609 62.0266 78.5406L61.9797 78.5281C62.35 77.4906 62.9094 76.5031 63.7282 75.7453C64.5885 74.9388 65.6861 74.4314 66.8579 74.2984C66.7079 77.0609 67.3672 79.8703 69.0688 81.6343C70.5782 83.2 72.9094 83.4047 74.7375 82.125C76.5766 80.8437 77.2079 78.5703 76.2704 76.5953C75.1782 74.2875 72.9047 72.4734 70.2235 71.725C70.5391 70.7297 70.9907 69.8656 71.55 69.2828C72.6735 68.1203 73.961 67.5797 75.4891 67.6343C75.9672 67.6531 76.4407 67.7265 76.9016 67.839C76.7048 68.4188 76.5681 69.0173 76.4938 69.625C76.2313 71.8062 76.8704 73.8734 78.2938 75.45C80.2313 77.5906 82.5797 77.2703 83.9344 76.0625C85.6563 74.5359 86.1438 71.4359 83.9844 68.8906C83.3688 68.164 82.2766 67.2265 80.9079 66.4265C81.8563 65.1469 83.2094 63.9047 84.886 62.7968C85.2044 62.5838 85.4255 62.2533 85.5011 61.8777C85.5766 61.502 85.5004 61.1118 85.2891 60.7922C85.1865 60.6331 85.0534 60.4959 84.8975 60.3885C84.7417 60.2811 84.5661 60.2056 84.3809 60.1664C84.1957 60.1271 84.0045 60.125 83.8185 60.16C83.6325 60.195 83.4552 60.2665 83.2969 60.3703C81.1032 61.8219 79.3829 63.4703 78.211 65.2172C77.3558 64.9396 76.467 64.7793 75.5688 64.7406C73.25 64.6547 71.1438 65.5265 69.4797 67.2594C68.511 68.264 67.775 69.7234 67.3297 71.3625C65.2422 71.425 63.2907 72.1984 61.7735 73.6062C60.4407 74.839 59.5891 76.4547 59.0829 78.1218C56.2094 78.0375 53.8297 79.439 52.6329 80.3047C51.9961 79.7664 51.2936 79.3112 50.5422 78.95C48.4422 77.9609 46.1625 77.9375 43.9516 78.8765C42.6672 79.4203 41.4172 80.475 40.3641 81.8078C38.4204 81.0468 36.3204 80.9922 34.3735 81.6937C32.6641 82.3047 31.2469 83.4562 30.1266 84.7906C26.3797 83.0609 21.3329 82.6453 16.461 83.7781C12.011 84.8125 7.08754 82.3656 6.17348 79.6328C5.57036 77.8312 7.12817 76.4547 8.62036 75.5844ZM79.3438 70C79.3844 69.6625 79.4594 69.3218 79.5641 68.9812C80.6141 69.6109 81.425 70.3187 81.8032 70.7656C82.9704 72.1437 82.5594 73.4078 82.0266 73.8828C81.4375 74.4015 80.8235 73.9656 80.4094 73.5078C79.5485 72.5578 79.1829 71.3453 79.3438 70ZM73.6735 77.8281C74.1829 78.9031 73.2719 79.6109 73.086 79.7422C72.9016 79.8734 71.936 80.475 71.1204 79.6297C70.05 78.5203 69.636 76.5609 69.7235 74.5937C71.4813 75.1562 72.986 76.3687 73.6735 77.8281ZM61.3829 81.3609C63.1469 81.8609 64.3704 82.85 65.0188 84.3015C65.2032 84.7093 65.0235 85.0922 64.8422 85.3437C64.4485 85.8844 63.7532 86.2109 63.1532 86.1406C62.3532 86.0437 61.8579 85.2593 61.5829 84.614C61.4047 84.1953 61.2469 82.9 61.3829 81.3609ZM51.9516 85.2672C52.1219 84.9734 52.3235 84.6906 52.5547 84.4156C53.2735 85.4078 53.7422 86.3781 53.9141 86.9343C54.4485 88.6593 53.5719 89.6625 52.8954 89.8906C52.1516 90.1359 51.7579 89.4937 51.5563 88.9109C51.1375 87.7031 51.275 86.4422 51.9516 85.2672ZM41.3032 85.7187C42.6985 86.9265 43.6063 88.6312 43.6672 90.2437C43.7141 91.4344 42.5985 91.725 42.3766 91.7734C42.1547 91.8219 41.0313 91.9969 40.6141 90.8969C40.0641 89.4594 40.45 87.4953 41.3032 85.7187ZM30.9735 88.6734C32.4 89.825 33.1375 91.2156 33.1641 92.8062C33.175 93.2515 32.8594 93.5344 32.5922 93.6937C32.0204 94.0375 31.2532 94.0625 30.7282 93.764C30.0297 93.3625 29.8813 92.4453 29.8829 91.7453C29.8813 91.289 30.2454 90.0344 30.9735 88.6734Z" fill="#0E0D0E"/>
</svg>
