<svg width="35" height="25" viewBox="0 0 35 25" fill="none" xmlns="http://www.w3.org/2000/svg">
<path d="M30.1377 14.3716C28.9168 14.3776 27.8555 14.6577 26.967 15.0717C26.6408 14.4567 26.3148 13.9088 26.2573 13.5069C26.1933 13.0381 26.1167 12.7519 26.1933 12.1917C26.2701 11.6315 26.6153 10.8338 26.6089 10.7729C26.6025 10.7121 26.5321 10.4258 25.8289 10.4198C25.1257 10.4137 24.5184 10.5477 24.4481 10.7242C24.3777 10.9008 24.2435 11.3027 24.154 11.7166C24.0325 12.3257 22.7476 14.4993 22.0125 15.6379C21.7759 15.1936 21.5714 14.8038 21.5265 14.4933C21.4626 14.0245 21.3859 13.7383 21.4626 13.1781C21.5394 12.6179 21.8846 11.8203 21.8782 11.7593C21.8717 11.6985 21.8014 11.4122 21.0982 11.4062C20.3949 11.4001 19.7876 11.5341 19.7174 11.7106C19.6471 11.8873 19.5703 12.3012 19.4233 12.7032C19.2762 13.1051 17.5693 16.7341 17.1219 17.6717C16.941 18.0512 16.7513 18.4268 16.5529 18.7982C16.5529 18.7982 16.5465 18.8165 16.5273 18.8469C16.4649 18.9634 16.401 19.0791 16.3356 19.194V19.2C16.2396 19.3645 16.1374 19.5167 16.0862 19.5167C16.0478 19.5167 15.9775 19.0783 16.099 18.4816C16.3547 17.2212 16.962 15.2606 16.9557 15.1936C16.9557 15.157 17.0707 14.8161 16.5593 14.6394C16.0606 14.4628 15.8817 14.7551 15.8368 14.7551C15.7922 14.7551 15.7601 14.8586 15.7601 14.8586C15.7601 14.8586 16.3164 12.6545 14.6989 12.6545C13.6889 12.6545 12.2952 13.7078 11.6048 14.6577C10.8199 15.0645 10.0357 15.4725 9.2522 15.8816C8.87518 16.0826 8.48514 16.2835 8.12073 16.4722C8.0951 16.4479 8.0696 16.4174 8.04396 16.3931C6.08772 14.402 2.46945 12.9954 2.62286 10.3224C2.68044 9.34818 3.03196 6.79078 9.57191 3.68546C14.9546 1.15849 19.238 1.85866 19.9795 3.41138C21.0406 5.62783 17.6845 9.74396 12.1226 10.3406C10.0002 10.566 8.88779 9.78653 8.60661 9.4943C8.31253 9.18978 8.2677 9.1715 8.15898 9.23248C7.98007 9.32389 8.0951 9.59784 8.15898 9.75611C8.32528 10.17 9.00926 10.9008 10.1664 11.2601C11.1892 11.5766 13.6761 11.7533 16.6871 10.6451C20.0562 9.40289 22.6901 5.9505 21.9166 3.05829C21.1429 0.123385 16.0286 -0.844732 11.1892 0.793128C8.31253 1.76751 5.19275 3.30182 2.94887 5.29904C0.283017 7.67362 -0.138968 9.73783 0.0336374 10.6025C0.653866 13.6713 5.09692 15.6685 6.87411 17.1481C6.78458 17.1968 6.70136 17.2395 6.63117 17.2761C5.74251 17.6961 2.35428 19.3827 1.51045 21.1668C0.551591 23.1883 1.664 24.6376 2.39911 24.8323C4.68137 25.4352 7.02752 24.3514 8.2869 22.5611C9.54627 20.771 9.39286 18.445 8.81116 17.3795C8.80471 17.3673 8.79841 17.3551 8.78552 17.3429C9.01571 17.2151 9.2522 17.0811 9.48238 16.9533C9.90545 16.7151 10.3339 16.4856 10.7674 16.2651C10.55 16.8314 10.3901 17.5073 10.3135 18.4816C10.2175 19.6264 10.7097 21.112 11.3554 21.6964C11.6432 21.9524 11.9819 21.9584 12.1994 21.9584C12.9537 21.9584 13.2926 21.3616 13.6697 20.6553C14.13 19.7908 14.5455 18.7861 14.5455 18.7861C14.5455 18.7861 14.0277 21.5017 15.4342 21.5017C15.9456 21.5017 16.4634 20.8684 16.6936 20.5458V20.5518C16.6936 20.5518 16.7063 20.5335 16.732 20.4909C16.7831 20.4118 16.815 20.363 16.815 20.363V20.3509C17.0196 20.0099 17.48 19.2366 18.1639 17.9518C19.0462 16.2957 19.8964 14.2255 19.8964 14.2255C19.8964 14.2255 19.9732 14.7308 20.2352 15.5711C20.3887 16.0643 20.7082 16.6062 20.964 17.1298C20.7595 17.4039 20.6315 17.556 20.6315 17.556L20.638 17.5622C20.4717 17.7691 20.2928 17.9944 20.0945 18.2137C19.3977 19.0052 18.5667 19.9126 18.4516 20.1743C18.3172 20.4848 18.3493 20.7102 18.6051 20.8928C18.7905 21.0268 19.1228 21.045 19.4617 21.0268C20.0882 20.9841 20.5293 20.838 20.7466 20.7467C21.0855 20.631 21.4818 20.4544 21.8525 20.1925C22.5367 19.7115 22.9521 19.0235 22.9138 18.1163C22.8946 17.617 22.722 17.1177 22.511 16.6487C22.575 16.5636 22.6325 16.4783 22.6965 16.3931C23.7768 14.8891 24.6144 13.2389 24.6144 13.2389C24.6144 13.2389 24.6911 13.7443 24.9531 14.5847C25.081 15.0109 25.3432 15.4737 25.5732 15.9242C24.5568 16.7097 23.9302 17.623 23.7065 18.2197C23.3038 19.328 23.617 19.8272 24.2116 19.9429C24.48 19.9977 24.8636 19.8759 25.1449 19.7602C25.5029 19.6506 25.9249 19.462 26.3277 19.1817C27.0118 18.7008 27.6701 18.0309 27.6317 17.1238C27.6125 16.7097 27.4975 16.3017 27.3377 15.9059C28.2007 15.5651 29.3131 15.3763 30.7322 15.5345C33.7753 15.8755 34.3762 17.6839 34.2611 18.4451C34.1461 19.2061 33.5068 19.6202 33.2959 19.7481C33.0848 19.876 33.0146 19.9186 33.0338 20.0099C33.0593 20.1438 33.1616 20.1378 33.3406 20.1134C33.59 20.0708 34.9389 19.4984 34.9963 18.0979C35.0923 16.3078 33.3022 14.3533 30.1377 14.3716ZM6.66312 21.9097C5.65298 22.9569 4.24664 23.3527 3.6393 23.0179C2.98726 22.6585 3.24295 21.112 4.48313 20.0039C5.23744 19.328 6.20919 18.7007 6.85491 18.3172C7.00188 18.2319 7.21932 18.1102 7.48145 17.9579C7.52614 17.9335 7.55178 17.9214 7.55178 17.9214L7.70519 17.83C8.15898 19.4131 7.72439 20.8076 6.66312 21.9097ZM14.015 17.1481C13.6633 17.9641 12.9282 20.0526 12.4807 19.9369C12.0971 19.8395 11.8605 18.2563 12.4039 16.6914C12.6788 15.9059 13.2605 14.9682 13.5994 14.603C14.1492 14.0184 14.7565 13.8234 14.9035 14.0611C15.089 14.3716 14.2323 16.6366 14.015 17.1481ZM20.0818 19.9125C19.9347 19.9856 19.7942 20.0343 19.7301 19.9977C19.6854 19.9733 19.7942 19.8759 19.7942 19.8759C19.7942 19.8759 20.5549 19.0966 20.8553 18.7434C21.028 18.5364 21.2324 18.2929 21.4499 18.0188V18.0979C21.4499 19.0296 20.5038 19.6568 20.0818 19.9125ZM24.7613 18.8956C24.6526 18.8225 24.6718 18.579 25.0362 17.8178C25.1769 17.5195 25.5092 17.0202 26.0783 16.5392C26.1422 16.734 26.187 16.9228 26.1806 17.0994C26.1741 18.2746 25.292 18.7129 24.7613 18.8956Z" fill="#9400D3"/>
</svg>
