<svg width="31" height="22" viewBox="0 0 31 22" fill="none" xmlns="http://www.w3.org/2000/svg">
<path d="M22.7543 0C24.359 0 25.5908 1.15912 26.5034 2.40625L26.8125 2.84763L27.0954 3.28762C27.1854 3.43062 27.271 3.57362 27.3537 3.71112C28.4955 5.64575 29.4894 8.17163 30.1467 10.6673C30.7996 13.1436 31.1609 15.73 30.9302 17.7636C30.698 19.8055 29.5881 22 27.107 22C24.8813 22 23.1272 20.8725 21.7024 19.7711L20.0919 18.491C18.7527 17.4515 17.2872 16.5 15.4997 16.5C13.7122 16.5 12.2453 17.4515 10.909 18.491L9.29852 19.7698C7.87082 20.8725 6.11667 22 3.89242 22C1.40991 22 0.299963 19.8055 0.0692681 17.7636C-0.159976 15.7286 0.19985 13.1436 0.85276 10.6659C1.51002 8.17162 2.5039 5.64712 3.64577 3.71112L3.90403 3.28625L4.18696 2.84763L4.496 2.40625C5.40862 1.15912 6.64045 0 8.24516 0C8.98512 0 9.72074 0.1705 10.4433 0.37125L11.3037 0.6215C11.4459 0.66275 11.5866 0.702625 11.7273 0.73975C12.9824 1.08075 14.2664 1.375 15.4997 1.375C16.733 1.375 18.0171 1.08075 19.2721 0.73975L20.5561 0.372625C21.2787 0.1705 22.0143 0 22.7543 0ZM10.4215 5.5C9.45951 5.5 8.5369 5.86216 7.85665 6.50682C7.1764 7.15148 6.79425 8.02582 6.79425 8.9375C6.79425 9.84918 7.1764 10.7235 7.85665 11.3682C8.5369 12.0128 9.45951 12.375 10.4215 12.375C11.3835 12.375 12.3062 12.0128 12.9864 11.3682C13.6666 10.7235 14.0488 9.84918 14.0488 8.9375C14.0488 8.02582 13.6666 7.15148 12.9864 6.50682C12.3062 5.86216 11.3835 5.5 10.4215 5.5ZM20.5779 5.5C20.1931 5.5 19.8241 5.64487 19.552 5.90273C19.2799 6.16059 19.127 6.51033 19.127 6.875V7.5625H18.4015C18.0167 7.5625 17.6477 7.70737 17.3756 7.96523C17.1035 8.22309 16.9506 8.57283 16.9506 8.9375C16.9506 9.30217 17.1035 9.65191 17.3756 9.90977C17.6477 10.1676 18.0167 10.3125 18.4015 10.3125H19.127V11C19.127 11.3647 19.2799 11.7144 19.552 11.9723C19.8241 12.2301 20.1931 12.375 20.5779 12.375C20.9627 12.375 21.3318 12.2301 21.6039 11.9723C21.876 11.7144 22.0288 11.3647 22.0288 11V10.3125H22.7543C23.1391 10.3125 23.5081 10.1676 23.7802 9.90977C24.0523 9.65191 24.2052 9.30217 24.2052 8.9375C24.2052 8.57283 24.0523 8.22309 23.7802 7.96523C23.5081 7.70737 23.1391 7.5625 22.7543 7.5625H22.0288V6.875C22.0288 6.51033 21.876 6.16059 21.6039 5.90273C21.3318 5.64487 20.9627 5.5 20.5779 5.5ZM10.4215 8.25C10.6139 8.25 10.7985 8.32243 10.9345 8.45136C11.0706 8.58029 11.147 8.75516 11.147 8.9375C11.147 9.11984 11.0706 9.29471 10.9345 9.42364C10.7985 9.55257 10.6139 9.625 10.4215 9.625C10.2291 9.625 10.0446 9.55257 9.90855 9.42364C9.7725 9.29471 9.69607 9.11984 9.69607 8.9375C9.69607 8.75516 9.7725 8.58029 9.90855 8.45136C10.0446 8.32243 10.2291 8.25 10.4215 8.25Z" fill="#9400D3"/>
</svg>
