<svg width="27" height="30" viewBox="0 0 27 30" fill="none" xmlns="http://www.w3.org/2000/svg">
<path d="M6.30278 29V25.0003C5.88889 20.8327 1 18.6011 1 12.2006C1 5.80277 4.7875 0.922534 12.3639 1.00093C17.8181 1.05973 22.9694 4.20122 22.9694 10.6018L26 15.4009C26 18.6011 22.9694 18.6011 22.9694 18.6011C22.9694 18.6011 23.7278 26.6005 16.9083 26.6005V29" stroke="#9400D3" stroke-width="2" stroke-linecap="round" stroke-linejoin="round"/>
<path d="M12.111 15.0006C12.8477 15.0006 13.5542 14.7056 14.0752 14.1805C14.5961 13.6554 14.8887 12.9432 14.8887 12.2007C14.8887 11.4581 14.5961 10.7459 14.0752 10.2208C13.5542 9.69575 12.8477 9.40076 12.111 9.40076C11.3743 9.40076 10.6677 9.69575 10.1468 10.2208C9.62585 10.7459 9.33319 11.4581 9.33319 12.2007C9.33319 12.9432 9.62585 13.6554 10.1468 14.1805C10.6677 14.7056 11.3743 15.0006 12.111 15.0006Z" stroke="#9400D3" stroke-width="2" stroke-linecap="round" stroke-linejoin="round"/>
<path d="M12.1109 16.4003C13.216 16.4003 14.2758 15.9578 15.0572 15.1702C15.8386 14.3826 16.2776 13.3143 16.2776 12.2005C16.2776 11.0866 15.8386 10.0183 15.0572 9.23072C14.2758 8.44309 13.216 8.00061 12.1109 8.00061C11.0059 8.00061 9.94606 8.44309 9.16466 9.23072C8.38326 10.0183 7.94427 11.0866 7.94427 12.2005C7.94427 13.3143 8.38326 14.3826 9.16466 15.1702C9.94606 15.9578 11.0059 16.4003 12.1109 16.4003Z" stroke="#9400D3" stroke-width="2" stroke-linecap="round" stroke-linejoin="round"/>
</svg>
