<svg width="31" height="35" viewBox="0 0 31 35" fill="none" xmlns="http://www.w3.org/2000/svg">
<path d="M28.5526 31.5C22.9237 31.5 15.5 35 15.5 35V15.75C15.5 15.75 22.8421 12.25 30.1842 12.25L28.5526 31.5Z" fill="#9400D3"/>
<path d="M2.44737 31.5C8.07632 31.5 15.5 35 15.5 35V15.75C15.5 15.75 8.1579 12.25 0.815796 12.25L2.44737 31.5Z" fill="#9400D3"/>
<path d="M15.5 14C19.1044 14 22.0263 10.866 22.0263 7C22.0263 3.13401 19.1044 0 15.5 0C11.8956 0 8.97369 3.13401 8.97369 7C8.97369 10.866 11.8956 14 15.5 14Z" fill="#62300C"/>
<path d="M29.3684 24.5H30.1842C30.6737 24.5 31 24.15 31 23.625V20.125C31 19.6 30.6737 19.25 30.1842 19.25H29.3684C27.9816 19.25 26.9211 20.3875 26.9211 21.875C26.9211 23.3625 27.9816 24.5 29.3684 24.5ZM1.63158 19.25H0.815789C0.326316 19.25 0 19.6 0 20.125V23.625C0 24.15 0.326316 24.5 0.815789 24.5H1.63158C3.01842 24.5 4.07895 23.3625 4.07895 21.875C4.07895 20.3875 3.01842 19.25 1.63158 19.25Z" fill="#62300C"/>
</svg>
