<svg width="23" height="28" viewBox="0 0 23 28" fill="none" xmlns="http://www.w3.org/2000/svg">
<path d="M15.6472 0H4.45189C2.81636 0 1.48516 1.33003 1.48516 2.96219V13.9157H1.19534C0.535233 13.9157 0 14.4496 0 15.1092V22.3481C0 23.0077 0.535233 23.5418 1.19534 23.5418H1.48516V24.8691C1.48516 26.5031 2.81642 27.8313 4.45189 27.8313H19.7274C21.362 27.8313 22.6932 26.503 22.6932 24.8691V7.01059L15.6472 0ZM5.70961 20.5041C6.05274 20.5041 6.43315 20.4295 6.65734 20.3404L6.82853 21.2264C6.61988 21.3311 6.14975 21.4431 5.53837 21.4431C3.79999 21.4431 2.90476 20.3631 2.90476 18.933C2.90476 17.2199 4.12837 16.2665 5.65007 16.2665C6.23953 16.2665 6.68694 16.3856 6.88825 16.4894L6.65734 17.3909C6.42586 17.2936 6.10517 17.2045 5.70239 17.2045C4.79941 17.2045 4.09831 17.7485 4.09831 18.8657C4.09831 19.8709 4.69511 20.5041 5.70961 20.5041ZM19.7274 26.0172H4.45189C3.81861 26.0172 3.30286 25.5023 3.30286 24.8691V23.5418H17.5428C18.203 23.5418 18.7383 23.0077 18.7383 22.3481V15.1092C18.7383 14.4496 18.203 13.9157 17.5428 13.9157H3.30286V2.96219C3.30286 2.33074 3.81861 1.81584 4.45189 1.81584L14.9675 1.80493V5.68593C14.9675 6.81946 15.8887 7.74017 17.0249 7.74017L20.8325 7.72932L20.8754 24.8691C20.8754 25.5023 20.3606 26.0172 19.7274 26.0172ZM8.83042 19.2605C7.99479 18.9703 7.45002 18.5082 7.45002 17.7785C7.45002 16.9214 8.16609 16.2664 9.35241 16.2664C9.91915 16.2664 10.3374 16.3856 10.6353 16.5194L10.382 17.4355C10.1807 17.3391 9.82255 17.1971 9.3301 17.1971C8.83765 17.1971 8.59894 17.421 8.59894 17.6812C8.59894 18.0014 8.88228 18.1433 9.53146 18.3889C10.4194 18.7165 10.8371 19.1786 10.8371 19.8865C10.8371 20.7279 10.1879 21.4431 8.80799 21.4431C8.2335 21.4431 7.66635 21.2938 7.38301 21.1373L7.61438 20.1993C7.92015 20.3559 8.39029 20.5114 8.87499 20.5114C9.3971 20.5114 9.67316 20.2958 9.67316 19.9682C9.67322 19.6553 9.43451 19.4761 8.83042 19.2605ZM12.8609 19.2605C12.0254 18.9703 11.4805 18.5082 11.4805 17.7785C11.4805 16.9214 12.1967 16.2664 13.3829 16.2664C13.9502 16.2664 14.3674 16.3856 14.6663 16.5194L14.4126 17.4355C14.2112 17.3391 13.8532 17.1971 13.3606 17.1971C12.8682 17.1971 12.6295 17.421 12.6295 17.6812C12.6295 18.0014 12.9128 18.1433 13.5621 18.3889C14.45 18.7165 14.8678 19.1786 14.8678 19.8865C14.8678 20.7279 14.2187 21.4431 12.8387 21.4431C12.2641 21.4431 11.6969 21.2938 11.4136 21.1373L11.645 20.1993C11.9507 20.3559 12.4208 20.5114 12.9055 20.5114C13.4277 20.5114 13.7038 20.2958 13.7038 19.9682C13.7037 19.6553 13.4649 19.4761 12.8609 19.2605Z" fill="#9400D3"/>
</svg>
